<svg id="Icons" enable-background="new 0 0 64 64" height="512" viewBox="0 0 64 64" width="512" xmlns="http://www.w3.org/2000/svg"><g><g><path d="m12 16 2.472 5.267 5.528.844-4 4.1.944 5.789-4.944-2.733-4.944 2.733.944-5.789-4-4.1 5.528-.844z" fill="#fab400"/></g><g><path d="m9.254 30.785.746-4.574-4-4.1 5.528-.844 1.472-3.137-1-2.13-2.472 5.267-5.528.844 4 4.1-.944 5.789z" fill="#dc9600"/></g><g><path d="m52 16 2.472 5.267 5.528.844-4 4.1.944 5.789-4.944-2.733-4.944 2.733.944-5.789-4-4.1 5.528-.844z" fill="#fab400"/></g><g><path d="m49.254 30.785.746-4.574-4-4.1 5.528-.844 1.472-3.137-1-2.13-2.472 5.267-5.528.844 4 4.1-.944 5.789z" fill="#dc9600"/></g><g><path d="m32 16 2.472 5.267 5.528.844-4 4.1.944 5.789-4.944-2.733-4.944 2.733.944-5.789-4-4.1 5.528-.844z" fill="#fab400"/></g><g><path d="m29.254 30.785.746-4.574-4-4.1 5.528-.844 1.472-3.137-1-2.13-2.472 5.267-5.528.844 4 4.1-.944 5.789z" fill="#dc9600"/></g><g><path d="m22 32 2.472 5.267 5.528.844-4 4.1.944 5.789-4.944-2.733-4.944 2.733.944-5.789-4-4.1 5.528-.844z" fill="#fab400"/></g><g><path d="m19.254 46.785.746-4.574-4-4.1 5.528-.844 1.472-3.137-1-2.13-2.472 5.267-5.528.844 4 4.1-.944 5.789z" fill="#dc9600"/></g><g><path d="m42 32 2.472 5.267 5.528.844-4 4.1.944 5.789-4.944-2.733-4.944 2.733.944-5.789-4-4.1 5.528-.844z" fill="#fab400"/></g><g><path d="m39.254 46.785.746-4.574-4-4.1 5.528-.844 1.472-3.137-1-2.13-2.472 5.267-5.528.844 4 4.1-.944 5.789z" fill="#dc9600"/></g></g></svg>