<?xml version="1.0" encoding="iso-8859-1"?>
<!-- Generator: Adobe Illustrator 19.0.0, SVG Export Plug-In . SVG Version: 6.00 Build 0)  -->
<svg version="1.1" id="Capa_1" xmlns="http://www.w3.org/2000/svg" xmlns:xlink="http://www.w3.org/1999/xlink" x="0px" y="0px"
	 viewBox="0 0 512 512" style="enable-background:new 0 0 512 512;" xml:space="preserve">
<circle style="fill:#35CCFF;" cx="256" cy="256" r="256"/>
<path style="fill:#00BAFF;" d="M506.927,306.926l-145.26-145.26l5.235,96.329L185.906,77L236.5,511.266
	c6.437,0.485,12.939,0.734,19.5,0.734C379.946,512,483.312,423.912,506.927,306.926z"/>
<path style="fill:#A67C52;" d="M185.906,77L23.837,363.973C64.565,451.395,153.198,512,256,512
	c55.45,0,106.779-17.635,148.695-47.595L185.906,77z"/>
<path style="fill:#754C24;" d="M404.695,464.405L185.906,77L185,78.605v423.41c22.544,6.496,46.364,9.985,71,9.985
	C311.45,512,362.779,494.365,404.695,464.405z"/>
<path style="fill:#FFFFFF;" d="M138,341c40,17,79,41,126,35c28.158-3.805,55.142-15.731,69.083-38.396L185.906,77L23.837,363.973
	c1.343,2.883,2.742,5.735,4.188,8.559c2.984-1.518,5.973-3.031,8.974-4.532C70,351,105,327,138,341z"/>
<path style="fill:#E2D5D7;" d="M185,361.934c24.722,10.242,50.376,17.72,79,14.066c28.158-3.805,55.142-15.731,69.083-38.396
	L185.906,77L185,361.934z"/>
<path style="fill:#E0E0E0;" d="M343,337c21-11,47-9,71-8c12.711,0,25.78-4.771,34.345-13.853l-86.678-153.48L240.663,375.926
	C253.771,374.7,266.609,375.232,280,373C304,367,321,348,343,337z"/>
<path style="fill:#C0C0C0;" d="M361,330.657c16.92-3.642,35.491-2.386,53-1.657c12.711,0,25.78-4.771,34.345-13.853l-86.678-153.48
	L361,330.657z"/>
<path style="fill:#8C6239;" d="M448.345,315.147C439.78,324.229,426.711,329,414,329c-24-1-50-3-71,8c-22,11-39,30-63,36
	c-13.391,2.232-26.229,1.699-39.337,2.926l-68.84,121.894C198.188,506.997,226.508,512,256,512
	c98.218,0,183.501-55.322,226.432-136.496L448.345,315.147z"/>
<path style="fill:#A67C52;" d="M171.823,497.82c4.339,1.51,8.736,2.896,13.177,4.176v-27.508L171.823,497.82z"/>
<path style="fill:#754C24;" d="M482.432,375.504l-34.087-60.357C439.78,324.229,426.711,329,414,329
	c-17.509-0.73-36.08-1.985-53,1.657V489.53C413.052,466.084,455.858,425.751,482.432,375.504z"/>
<g>
</g>
<g>
</g>
<g>
</g>
<g>
</g>
<g>
</g>
<g>
</g>
<g>
</g>
<g>
</g>
<g>
</g>
<g>
</g>
<g>
</g>
<g>
</g>
<g>
</g>
<g>
</g>
<g>
</g>
</svg>
